<?xml version="1.0" standalone="no"?>
<!DOCTYPE svg PUBLIC "-//W3C//DTD SVG 20010904//EN"
 "http://www.w3.org/TR/2001/REC-SVG-20010904/DTD/svg10.dtd">
<svg version="1.0" xmlns="http://www.w3.org/2000/svg"
 width="1024.000000pt" height="1024.000000pt" viewBox="0 0 1024.000000 1024.000000"
 preserveAspectRatio="xMidYMid meet">
<metadata>
Created by potrace 1.14, written by Peter Selinger 2001-2017
</metadata>
<g transform="translate(0.000000,1024.000000) scale(0.100000,-0.100000)"
fill="#000000" stroke="none">
<path d="M5737 9854 c-1 -1 -33 -5 -72 -8 -105 -11 -286 -53 -408 -97 -376
-134 -709 -395 -929 -730 -56 -85 -149 -261 -163 -309 -4 -14 -11 -30 -15 -35
-10 -12 -77 -230 -86 -278 -3 -17 -7 -36 -8 -42 -2 -5 -6 -32 -10 -60 -4 -27
-10 -61 -13 -75 -3 -14 -7 -868 -8 -1897 l-2 -1873 1813 0 1814 0 1 38 c1 67
-2 186 -6 217 -2 17 -7 68 -10 114 -3 47 -8 87 -10 90 -1 3 -6 35 -10 71 -4
36 -9 68 -11 71 -2 4 -6 24 -9 45 -7 55 -12 81 -51 239 -99 401 -287 819 -522
1160 -58 84 -163 226 -173 235 -3 3 -30 34 -59 70 -29 36 -127 139 -219 230
l-166 166 0 758 0 758 -118 -6 c-65 -3 -121 -7 -125 -10 -4 -2 -32 -7 -62 -10
-30 -4 -89 -15 -130 -26 -41 -10 -76 -17 -78 -15 -2 2 -4 277 -5 610 l0 606
-74 -3 c-41 -2 -75 -4 -76 -4z m-607 -3581 c86 -31 162 -95 207 -173 98 -168
40 -400 -126 -504 -180 -114 -421 -59 -530 120 -160 265 41 596 349 577 30 -1
75 -10 100 -20z"/>
<path d="M3497 6314 c-1 -1 -33 -4 -72 -8 -38 -3 -81 -8 -95 -11 -14 -3 -45
-8 -70 -11 -66 -9 -269 -69 -358 -106 -549 -227 -955 -692 -1101 -1261 -16
-62 -32 -136 -36 -166 -4 -30 -9 -63 -11 -75 -2 -11 -6 -66 -10 -123 l-6 -103
935 0 935 0 -1 932 -2 933 -53 0 c-29 0 -54 0 -55 -1z"/>
<path d="M7487 4083 c-1 -1 -47 -4 -103 -7 -56 -4 -110 -8 -120 -10 -10 -2
-44 -7 -74 -10 -60 -7 -86 -11 -170 -27 -30 -6 -68 -13 -85 -15 -16 -3 -75
-17 -130 -30 -1132 -282 -2052 -1100 -2459 -2188 -39 -103 -103 -301 -110
-339 -2 -12 -11 -49 -19 -82 -8 -33 -18 -78 -23 -100 -4 -22 -9 -46 -10 -53
-2 -6 -12 -70 -23 -140 -24 -156 -34 -283 -35 -421 l-1 -104 1750 1 c963 0
1757 1 1765 1 13 1 15 201 13 1748 -1 962 -2 1755 -2 1764 -1 12 -15 15 -82
15 -44 -1 -81 -2 -82 -3z"/>
<path d="M4021 4070 c-3 -3 -7 -238 -6 -524 l0 -518 75 5 c160 13 295 52 430
125 313 170 534 525 535 857 l0 60 -513 0 c-283 0 -517 -2 -521 -5z"/>
<path d="M2575 4008 c4 -55 11 -107 20 -158 18 -98 90 -264 155 -360 86 -126
220 -249 352 -323 70 -39 205 -93 260 -103 23 -4 45 -8 48 -9 14 -4 139 -19
165 -19 l30 -1 2 518 2 517 -519 0 -520 0 5 -62z"/>
</g>
</svg>
